<?xml version="1.0" encoding="iso-8859-1"?>
<!-- Generator: Adobe Illustrator 21.0.0, SVG Export Plug-In . SVG Version: 6.00 Build 0)  -->
<svg version="1.1" id="Layer_1" xmlns="http://www.w3.org/2000/svg" xmlns:xlink="http://www.w3.org/1999/xlink" x="0px" y="0px"
	 viewBox="0 0 100.353 100.353" style="enable-background:new 0 0 100.353 100.353;" xml:space="preserve">
<g>
	<path d="M94.043,39.384L94.043,39.384l-0.001-23.382H22.625L6.366,32.863v55.989h79.979v-7.693h7.697V61.306h0.001V39.384z
		 M23.899,19.002h67.143v19.85l-4.697,5.809V31.968H11.396L23.899,19.002z M83.345,85.852H9.366V34.968h73.979v12.363H66.177
		c-6.971,0-12.642,5.671-12.642,12.642s5.671,12.642,12.642,12.642h17.168V85.852z M66.177,69.615c-5.316,0-9.642-4.325-9.642-9.642
		s4.325-9.642,9.642-9.642h19.441l5.425-6.708v17.419l-6.702,8.573H66.177z M91.042,78.158h-4.697v-6.2h-0.028l4.726-6.044V78.158z"
		/>
	<rect x="32.846" y="23.736" width="38.018" height="3"/>
</g>
</svg>
