<svg xmlns="http://www.w3.org/2000/svg" viewBox="0 0 100.353 100.352"><path d="M49.235 95.105c-10.794 0-20.624-5.943-25.672-15.515-2.935-4.517-4.686-12.004-4.686-20.051 0-8.755 3.072-18.657 9.131-29.431 4.484-7.974 8.906-13.332 9.092-13.557a1.5 1.5 0 0 1 2.597 1.37c-.053.185-4.766 16.952-2.917 30.202 3.271-7.345 8.771-25.18 10.801-43.716a1.5 1.5 0 0 1 2.782-.599c.304.514 7.467 12.778 10.479 29.762.366 1.917.635 4.196.92 6.61.195 1.651.394 3.332.629 4.921 2.621-5.315 4.558-14.133 5.176-17.721a1.5 1.5 0 0 1 2.79-.472c.364.657 8.915 16.317 8.915 35.36 0 6.631-1.471 12.761-3.938 16.436-4.824 9.967-15.056 16.401-26.099 16.401zM35.137 24.31c-5.19 7.688-13.26 21.802-13.26 35.229 0 7.522 1.583 14.426 4.234 18.468.027.041.052.083.075.126 4.518 8.618 13.349 13.972 23.048 13.972 9.934 0 19.136-5.809 23.443-14.799.033-.069.071-.136.115-.199 2.146-3.135 3.479-8.821 3.479-14.838 0-12.776-4.131-24.185-6.646-29.946-1.204 5.348-3.575 14.06-6.907 17.783a1.5 1.5 0 0 1-2.578-.659c-.615-2.634-.993-5.827-1.357-8.915-.279-2.359-.542-4.588-.892-6.419C55.992 23.4 52.317 14.5 49.959 9.553c-2.949 20.979-9.777 40.568-12.755 43.831a1.5 1.5 0 0 1-2.557-.626c-2.46-9.259-.958-21.015.49-28.448z"/></svg>