<svg xmlns="http://www.w3.org/2000/svg" viewBox="0 0 99.313 99.313"><path d="M85.449 20.138H29.503c-5.918 0-10.732 4.335-10.732 9.665v14.051H8.425a5.654 5.654 0 0 0-5.65 5.647v15.514a5.657 5.657 0 0 0 5.65 5.65h6.67c.633 4.602 4.582 8.161 9.358 8.161 4.671 0 8.552-3.411 9.308-7.871h31.896c.756 4.46 4.638 7.871 9.311 7.871 4.671 0 8.55-3.411 9.305-7.871h10.366a1.5 1.5 0 0 0 1.476-1.229l.049-.266c.017-.089.024-.18.024-.271V29.803c0-5.33-4.817-9.665-10.739-9.665zM21.77 31.303h14.323v12.625l-14.323.002V31.303zm17.323 0h17.664v12.622l-17.664.003V31.303zm20.664 0h17.312v12.618l-17.312.003V31.303zm20.312 0h13.119v12.616l-13.119.002V31.303zm-50.567-8.165h55.946c3.668 0 6.741 2.211 7.534 5.165H21.974c.793-2.954 3.864-5.165 7.528-5.165zm-5.048 52.687c-3.561 0-6.457-2.894-6.457-6.451a6.463 6.463 0 0 1 6.457-6.455c3.558 0 6.451 2.896 6.451 6.455a6.458 6.458 0 0 1-6.451 6.451zm50.514 0a6.46 6.46 0 0 1-6.454-6.451 6.462 6.462 0 0 1 6.454-6.455c3.556 0 6.448 2.896 6.448 6.455a6.456 6.456 0 0 1-6.448 6.451zm9.33-7.871c-.688-4.541-4.603-8.035-9.33-8.035-4.729 0-8.647 3.495-9.336 8.035H33.786c-.688-4.541-4.605-8.035-9.333-8.035-4.63 0-8.486 3.346-9.294 7.745H8.424a2.653 2.653 0 0 1-2.65-2.65V49.5a2.652 2.652 0 0 1 2.65-2.647h11.663c.144.046.294.078.454.078l72.646-.012v21.036l-8.889-.001z" fill="#231f20"/></svg>