<svg xmlns="http://www.w3.org/2000/svg" viewBox="0 0 100.353 100.352"><path d="M84.395 7.881H15.959a1.5 1.5 0 0 0-1.5 1.5v81.591a1.5 1.5 0 0 0 1.5 1.5h68.437a1.5 1.5 0 0 0 1.5-1.5V9.381a1.501 1.501 0 0 0-1.501-1.5zm-1.5 81.59H17.459v-78.59h65.437l-.001 78.59z"/><path d="M25.254 40.175h50.3a1.5 1.5 0 0 0 1.5-1.5V18.216a1.5 1.5 0 0 0-1.5-1.5h-50.3a1.5 1.5 0 0 0-1.5 1.5v20.458a1.5 1.5 0 0 0 1.5 1.501zm1.5-20.458h47.3v17.458h-47.3V19.717zm9.214 27.759H25.782a1.5 1.5 0 0 0-1.5 1.5v10.187a1.5 1.5 0 0 0 1.5 1.5h10.186a1.5 1.5 0 0 0 1.5-1.5V48.976a1.5 1.5 0 0 0-1.5-1.5zm-1.5 10.187h-7.186v-7.187h7.186v7.187zm1.5 9.551H25.782a1.5 1.5 0 0 0-1.5 1.5V78.9a1.5 1.5 0 0 0 1.5 1.5h10.186a1.5 1.5 0 0 0 1.5-1.5V68.714a1.5 1.5 0 0 0-1.5-1.5zm-1.5 10.186h-7.186v-7.187h7.186V77.4zm40.557-29.924H64.84a1.5 1.5 0 0 0-1.5 1.5v10.187a1.5 1.5 0 0 0 1.5 1.5h10.186a1.5 1.5 0 0 0 1.5-1.5V48.976a1.501 1.501 0 0 0-1.501-1.5zm-1.5 10.187H66.34v-7.187h7.186l-.001 7.187zm1.5 9.551H64.84a1.5 1.5 0 0 0-1.5 1.5V78.9a1.5 1.5 0 0 0 1.5 1.5h10.186a1.5 1.5 0 0 0 1.5-1.5V68.714a1.5 1.5 0 0 0-1.501-1.5zm-1.5 10.186H66.34v-7.187h7.186l-.001 7.187zM55.831 47.141H45.648a1.5 1.5 0 0 0-1.5 1.5v10.187a1.5 1.5 0 0 0 1.5 1.5h10.183a1.5 1.5 0 0 0 1.5-1.5V48.641a1.5 1.5 0 0 0-1.5-1.5zm-1.5 10.187h-7.183v-7.187h7.183v7.187zm1.5 9.55H45.648a1.5 1.5 0 0 0-1.5 1.5v10.188a1.5 1.5 0 0 0 1.5 1.5h10.183a1.5 1.5 0 0 0 1.5-1.5V68.378a1.5 1.5 0 0 0-1.5-1.5zm-1.5 10.187h-7.183v-7.188h7.183v7.188z"/></svg>